<svg width="315" height="243" viewBox="0 0 315 243" fill="none" xmlns="http://www.w3.org/2000/svg">
<rect width="315" height="243" fill="#ABBACF"/>
<path d="M199.222 163.222H116.778V80.7778H199.222M199.222 69H116.778C113.654 69 110.658 70.2409 108.45 72.4496C106.241 74.6584 105 77.6541 105 80.7778V163.222C105 166.346 106.241 169.342 108.45 171.55C110.658 173.759 113.654 175 116.778 175H199.222C202.346 175 205.342 173.759 207.55 171.55C209.759 169.342 211 166.346 211 163.222V80.7778C211 77.6541 209.759 74.6584 207.55 72.4496C205.342 70.2409 202.346 69 199.222 69ZM169.542 123.708L153.348 144.554L141.806 130.657L125.611 151.444H190.389L169.542 123.708Z" fill="white"/>
</svg>
